<svg xmlns="http://www.w3.org/2000/svg" version="1.1" xmlns:xlink="http://www.w3.org/1999/xlink" xmlns:svgjs="http://svgjs.dev/svgjs" width="1000" height="1000" viewBox="0 0 1000 1000"><rect width="1000" height="1000" fill="#ffffff"></rect><g transform="matrix(0.7,0,0,0.7,149.5758837013165,429.3405979449985)"><svg viewBox="0 0 396 80" data-background-color="#ffffff" preserveAspectRatio="xMidYMid meet" height="202" width="1000" xmlns="http://www.w3.org/2000/svg" xmlns:xlink="http://www.w3.org/1999/xlink"><defs></defs><g id="tight-bounds" transform="matrix(1,0,0,1,0.24007135103050814,-0.022969134369702715)"><svg viewBox="0 0 395.52 80.0459382687394" height="80.0459382687394" width="395.52"><g><svg viewBox="0 0 552.9661314379396 111.91012545961001" height="80.0459382687394" width="395.52"><g><rect width="7.302583650649135" height="97.17232311977713" x="131.02683665993672" y="7.368901169916441" fill="#000000" opacity="1" stroke-width="0" stroke="transparent" fill-opacity="1" class="rect-ei-0" data-fill-palette-color="primary" rx="1%" id="ei-0" data-palette-color="#ffffff"></rect></g><g transform="matrix(1,0,0,1,157.4461314379396,15.4665947632312)"><svg viewBox="0 0 395.52 80.97693593314762" height="80.97693593314762" width="395.52"><g><svg viewBox="0 0 395.52 80.97693593314762" height="80.97693593314762" width="395.52"><g><svg viewBox="0 0 395.52 80.97693593314762" height="80.97693593314762" width="395.52"><g transform="matrix(1,0,0,1,0,0)"><svg width="395.52" viewBox="4 -29.4 143.59 29.4" height="80.97693593314762" data-palette-color="#ffffff"><path d="M13.65 0L4 0 4-29.4 13.65-29.4 13.65-18.2 29.2-18.2 29.2-29.4 38.8-29.4 38.8 0 29.2 0 29.2-11.4 13.65-11.4 13.65 0ZM71.05 0L56.45 0Q51.15 0 48.72-2.38 46.3-4.75 46.3-9.95L46.3-9.95 46.3-19.5Q46.3-24.6 48.7-27 51.1-29.4 56.45-29.4L56.45-29.4 71.05-29.4Q76.3-29.4 78.72-27 81.15-24.6 81.15-19.5L81.15-19.5 81.15-9.95Q81.15-4.75 78.7-2.38 76.25 0 71.05 0L71.05 0ZM59.9-6.8L59.9-6.8 67.65-6.8Q71.55-6.8 71.55-10.35L71.55-10.35 71.55-19.1Q71.55-22.6 67.65-22.6L67.65-22.6 59.9-22.6Q57.9-22.6 56.9-21.8 55.9-21 55.9-19.1L55.9-19.1 55.9-10.35Q55.9-8.5 56.9-7.65 57.9-6.8 59.9-6.8ZM98.7 0L89.15 0 89.15-25.4 88.65-29.4 100.75-29.4 109.55-11.9 118.55-29.4 130-29.4 130 0 120.45 0 120.45-16.85 119.9-16.85 117.8-11.45 114.15-3 105.05-3 101.25-11.45 99.2-16.85 98.7-16.85 98.7 0ZM147.59 0L137.99 0 137.99-29.4 147.59-29.4 147.59 0Z" opacity="1" transform="matrix(1,0,0,1,0,0)" fill="#000000" class="undefined-text-0" data-fill-palette-color="primary" id="text-0"></path></svg></g></svg></g></svg></g></svg></g><g><svg viewBox="0 0 111.91012553258295 111.91012545961001" height="111.91012545961001" width="111.91012553258295"><g><svg xmlns="http://www.w3.org/2000/svg" xmlns:xlink="http://www.w3.org/1999/xlink" version="1.1" x="0" y="0" viewBox="28.4052734 11.5 153.3583985 153.3583984" enable-background="new 0 0 208 176" xml:space="preserve" height="111.91012545961001" width="111.91012553258295" class="icon-icon-0" data-fill-palette-color="accent" id="icon-0"><path fill="#000000" d="M181.764 88.178l-20.296-13.418v7.757h-19.814c-0.92-5.992-3.284-11.507-6.716-16.189l14.017-14.016 5.487 5.486 4.863-23.84-23.84 4.863 5.486 5.485-14.018 14.018c-4.682-3.432-10.195-5.794-16.189-6.714V31.796h7.76L105.084 11.5 91.666 31.796h7.757v19.814c-5.993 0.921-11.507 3.283-16.188 6.715L69.218 44.309l5.487-5.489L50.863 33.958l4.864 23.84L61.212 52.313l14.018 14.018c-3.432 4.681-5.794 10.197-6.713 16.189H48.701v-7.76L28.405 88.18l20.296 13.418v-7.758h19.816c0.919 5.993 3.283 11.508 6.715 16.189l-14.017 14.017-5.487-5.487-4.863 23.84 23.84-4.864-5.486-5.483 14.018-14.018c4.682 3.433 10.196 5.795 16.189 6.715V144.563h-7.76l13.42 20.295L118.504 144.563h-7.757v-19.816c5.992-0.92 11.507-3.282 16.189-6.715l14.016 14.017-5.487 5.486 23.842 4.862-4.865-23.838-5.485 5.485-14.018-14.017c3.433-4.682 5.795-10.197 6.715-16.189h19.814v7.76L181.764 88.178zM66.68 91.567v-6.78h22.115v-4.642l12.151 8.033-12.151 8.035v-4.646H66.68zM105.085 121.142l-8.036-12.151h4.646V89.483h6.778V86.875h-6.778V67.368h-4.646l8.036-12.152 8.033 12.152h-4.645V86.875h0.002v22.116h4.643L105.085 121.142zM143.493 91.567h-22.115v4.646l-12.151-8.035 12.151-8.033v4.645h22.115V91.567z" data-fill-palette-color="accent"></path></svg></g></svg></g></svg></g></svg><rect width="395.52" height="80.0459382687394" fill="none" stroke="none" visibility="hidden"></rect></g></svg></g></svg>